<svg width="89" height="59" viewBox="0 0 89 59" fill="none" xmlns="http://www.w3.org/2000/svg">
<circle opacity="0.98" cx="14" cy="14" r="14" fill="#FFCA28" fill-opacity="0.69"/>
<circle opacity="0.55" cx="34" cy="15" r="14" fill="#9668FA" fill-opacity="0.7"/>
<ellipse opacity="0.29" cx="22" cy="28.5" rx="14" ry="13.5" fill="#01BED5"/>
<path d="M49.02 58.294C46.976 58.294 45.128 57.944 43.476 57.244C41.852 56.544 40.564 55.536 39.612 54.22C38.66 52.904 38.17 51.35 38.142 49.558H44.442C44.526 50.762 44.946 51.714 45.702 52.414C46.486 53.114 47.55 53.464 48.894 53.464C50.266 53.464 51.344 53.142 52.128 52.498C52.912 51.826 53.304 50.958 53.304 49.894C53.304 49.026 53.038 48.312 52.506 47.752C51.974 47.192 51.302 46.758 50.49 46.45C49.706 46.114 48.614 45.75 47.214 45.358C45.31 44.798 43.756 44.252 42.552 43.72C41.376 43.16 40.354 42.334 39.486 41.242C38.646 40.122 38.226 38.638 38.226 36.79C38.226 35.054 38.66 33.542 39.528 32.254C40.396 30.966 41.614 29.986 43.182 29.314C44.75 28.614 46.542 28.264 48.558 28.264C51.582 28.264 54.032 29.006 55.908 30.49C57.812 31.946 58.862 33.99 59.058 36.622H52.59C52.534 35.614 52.1 34.788 51.288 34.144C50.504 33.472 49.454 33.136 48.138 33.136C46.99 33.136 46.066 33.43 45.366 34.018C44.694 34.606 44.358 35.46 44.358 36.58C44.358 37.364 44.61 38.022 45.114 38.554C45.646 39.058 46.29 39.478 47.046 39.814C47.83 40.122 48.922 40.486 50.322 40.906C52.226 41.466 53.78 42.026 54.984 42.586C56.188 43.146 57.224 43.986 58.092 45.106C58.96 46.226 59.394 47.696 59.394 49.516C59.394 51.084 58.988 52.54 58.176 53.884C57.364 55.228 56.174 56.306 54.606 57.118C53.038 57.902 51.176 58.294 49.02 58.294ZM79.9898 58L73.5218 46.576H70.7498V58H64.8698V28.684H75.8738C78.1418 28.684 80.0738 29.09 81.6698 29.902C83.2658 30.686 84.4558 31.764 85.2398 33.136C86.0518 34.48 86.4578 35.992 86.4578 37.672C86.4578 39.604 85.8978 41.354 84.7778 42.922C83.6578 44.462 81.9918 45.526 79.7798 46.114L86.7938 58H79.9898ZM70.7498 42.166H75.6638C77.2598 42.166 78.4498 41.788 79.2338 41.032C80.0178 40.248 80.4098 39.17 80.4098 37.798C80.4098 36.454 80.0178 35.418 79.2338 34.69C78.4498 33.934 77.2598 33.556 75.6638 33.556H70.7498V42.166Z" fill="#1CBCCF" fill-opacity="0.8"/>
</svg>
