<svg width="152" height="50" viewBox="0 0 152 50" fill="none" xmlns="http://www.w3.org/2000/svg">
<circle opacity="0.98" cx="14" cy="14" r="14" fill="#FFCA28" fill-opacity="0.69"/>
<circle opacity="0.55" cx="33" cy="15" r="14" fill="#9668FA" fill-opacity="0.7"/>
<ellipse opacity="0.29" cx="22" cy="29.5" rx="14" ry="13.5" fill="#01BED5"/>
<path d="M56.02 49.294C53.976 49.294 52.128 48.944 50.476 48.244C48.852 47.544 47.564 46.536 46.612 45.22C45.66 43.904 45.17 42.35 45.142 40.558H51.442C51.526 41.762 51.946 42.714 52.702 43.414C53.486 44.114 54.55 44.464 55.894 44.464C57.266 44.464 58.344 44.142 59.128 43.498C59.912 42.826 60.304 41.958 60.304 40.894C60.304 40.026 60.038 39.312 59.506 38.752C58.974 38.192 58.302 37.758 57.49 37.45C56.706 37.114 55.614 36.75 54.214 36.358C52.31 35.798 50.756 35.252 49.552 34.72C48.376 34.16 47.354 33.334 46.486 32.242C45.646 31.122 45.226 29.638 45.226 27.79C45.226 26.054 45.66 24.542 46.528 23.254C47.396 21.966 48.614 20.986 50.182 20.314C51.75 19.614 53.542 19.264 55.558 19.264C58.582 19.264 61.032 20.006 62.908 21.49C64.812 22.946 65.862 24.99 66.058 27.622H59.59C59.534 26.614 59.1 25.788 58.288 25.144C57.504 24.472 56.454 24.136 55.138 24.136C53.99 24.136 53.066 24.43 52.366 25.018C51.694 25.606 51.358 26.46 51.358 27.58C51.358 28.364 51.61 29.022 52.114 29.554C52.646 30.058 53.29 30.478 54.046 30.814C54.83 31.122 55.922 31.486 57.322 31.906C59.226 32.466 60.78 33.026 61.984 33.586C63.188 34.146 64.224 34.986 65.092 36.106C65.96 37.226 66.394 38.696 66.394 40.516C66.394 42.084 65.988 43.54 65.176 44.884C64.364 46.228 63.174 47.306 61.606 48.118C60.038 48.902 58.176 49.294 56.02 49.294ZM114.151 49L107.683 37.576H104.911V49H99.031V19.684H110.035C112.303 19.684 114.235 20.09 115.831 20.902C117.427 21.686 118.617 22.764 119.401 24.136C120.213 25.48 120.619 26.992 120.619 28.672C120.619 30.604 120.059 32.354 118.939 33.922C117.819 35.462 116.153 36.526 113.941 37.114L120.955 49H114.151ZM104.911 33.166H109.825C111.421 33.166 112.611 32.788 113.395 32.032C114.179 31.248 114.571 30.17 114.571 28.798C114.571 27.454 114.179 26.418 113.395 25.69C112.611 24.934 111.421 24.556 109.825 24.556H104.911V33.166Z" fill="#1CBCCF" fill-opacity="0.8"/>
<path d="M82.2018 49.378C79.9618 49.378 77.9458 48.888 76.1538 47.908C74.3618 46.9 72.9478 45.486 71.9118 43.666C70.9038 41.846 70.3998 39.746 70.3998 37.366C70.3998 34.986 70.9178 32.886 71.9538 31.066C73.0178 29.246 74.4598 27.846 76.2798 26.866C78.0998 25.858 80.1298 25.354 82.3698 25.354C84.6098 25.354 86.6398 25.858 88.4598 26.866C90.2798 27.846 91.7078 29.246 92.7438 31.066C93.8078 32.886 94.3398 34.986 94.3398 37.366C94.3398 39.746 93.7938 41.846 92.7018 43.666C91.6378 45.486 90.1818 46.9 88.3338 47.908C86.5138 48.888 84.4698 49.378 82.2018 49.378ZM82.2018 44.254C83.2658 44.254 84.2598 44.002 85.1838 43.498C86.1358 42.966 86.8918 42.182 87.4518 41.146C88.0118 40.11 88.2918 38.85 88.2918 37.366C88.2918 35.154 87.7038 33.46 86.5278 32.284C85.3798 31.08 83.9658 30.478 82.2858 30.478C80.6058 30.478 79.1918 31.08 78.0438 32.284C76.9238 33.46 76.3638 35.154 76.3638 37.366C76.3638 39.578 76.9098 41.286 78.0018 42.49C79.1218 43.666 80.5218 44.254 82.2018 44.254ZM124.803 37.282C124.803 34.93 125.265 32.844 126.189 31.024C127.141 29.204 128.415 27.804 130.011 26.824C131.635 25.844 133.441 25.354 135.429 25.354C137.165 25.354 138.677 25.704 139.965 26.404C141.281 27.104 142.331 27.986 143.115 29.05V25.732H149.037V49H143.115V45.598C142.359 46.69 141.309 47.6 139.965 48.328C138.649 49.028 137.123 49.378 135.387 49.378C133.427 49.378 131.635 48.874 130.011 47.866C128.415 46.858 127.141 45.444 126.189 43.624C125.265 41.776 124.803 39.662 124.803 37.282ZM143.115 37.366C143.115 35.938 142.835 34.72 142.275 33.712C141.715 32.676 140.959 31.892 140.007 31.36C139.055 30.8 138.033 30.52 136.941 30.52C135.849 30.52 134.841 30.786 133.917 31.318C132.993 31.85 132.237 32.634 131.649 33.67C131.089 34.678 130.809 35.882 130.809 37.282C130.809 38.682 131.089 39.914 131.649 40.978C132.237 42.014 132.993 42.812 133.917 43.372C134.869 43.932 135.877 44.212 136.941 44.212C138.033 44.212 139.055 43.946 140.007 43.414C140.959 42.854 141.715 42.07 142.275 41.062C142.835 40.026 143.115 38.794 143.115 37.366Z" fill="#49C9D9"/>
</svg>
